<svg height="512pt" viewBox="-1 0 512 512.00013" width="512pt" xmlns="http://www.w3.org/2000/svg"><path d="m123.578125 295.972656h-106.785156c-9.089844 0-16.480469 7.394532-16.480469 16.484375v183.058594c0 9.089844 7.394531 16.484375 16.480469 16.484375h106.785156c9.089844 0 16.484375-7.394531 16.484375-16.484375v-183.058594c0-9.089843-7.394531-16.484375-16.484375-16.484375zm1.5 199.546875c0 .824219-.671875 1.496094-1.5 1.496094h-106.785156c-.824219 0-1.496094-.671875-1.496094-1.496094v-183.0625c0-.828125.671875-1.5 1.496094-1.5h106.785156c.824219 0 1.5.671875 1.5 1.5zm0 0"/><path d="m308.613281 237.449219h-106.78125c-9.089843 0-16.484375 7.394531-16.484375 16.484375v241.582031c0 9.089844 7.394532 16.484375 16.484375 16.484375h106.78125c9.089844 0 16.484375-7.394531 16.484375-16.484375v-241.582031c0-9.089844-7.394531-16.484375-16.484375-16.484375zm1.5 258.070312c0 .824219-.671875 1.496094-1.5 1.496094h-106.78125c-.828125 0-1.5-.671875-1.5-1.496094v-241.585937c0-.828125.671875-1.5 1.5-1.5h106.78125c.828125 0 1.5.671875 1.5 1.5zm0 0"/><path d="m493.652344 165.808594h-106.785156c-9.089844 0-16.480469 7.390625-16.480469 16.480468v191.765626c0 4.140624 3.351562 7.492187 7.492187 7.492187 4.136719 0 7.492188-3.355469 7.492188-7.492187v-191.765626c0-.824218.671875-1.496093 1.496094-1.496093h106.785156c.824218 0 1.496094.671875 1.496094 1.496093v313.226563c0 .828125-.671876 1.5-1.496094 1.5h-106.785156c-.824219 0-1.496094-.671875-1.496094-1.5v-86.910156c0-4.136719-3.355469-7.492188-7.492188-7.492188-4.140625 0-7.492187 3.355469-7.492187 7.492188v86.910156c0 9.089844 7.390625 16.484375 16.480469 16.484375h106.785156c9.085937 0 16.480468-7.394531 16.480468-16.484375v-313.226563c0-9.089843-7.394531-16.480468-16.480468-16.480468zm0 0"/><path d="m447.34375 82.785156 10.765625 14.660156c3.503906 4.769532 9.3125 7.15625 15.152344 6.230469 5.84375-.925781 10.628906-4.992187 12.480469-10.609375l23.902343-72.390625c1.59375-4.828125.75-10.15625-2.257812-14.253906-3.011719-4.09375-7.800781-6.5039062-12.925781-6.41796875l-87.914063 1.32031275c-3.648437.054687-6.925781 2.121093-8.550781 5.390625-1.621094 3.265625-1.289063 7.125.871094 10.0625l16.246093 22.121094c.128907.179687.175781.378906.132813.59375-.046875.21875-.160156.386718-.351563.5l-59.105469 35.734374c-.285156.175782-.644531.140626-.894531-.085937l-26.222656-23.640625c-5.269531-4.75-13.113281-5.382812-19.074219-1.535156l-147.390625 95.117187c-.269531.175781-.625.160157-.875-.039062l-43.46875-34.101563c-5.15625-4.046875-12.371093-4.460937-17.957031-1.027344l-90.835938 55.816407c-5.59375 3.4375-9.070312 9.652343-9.070312 16.21875v26.488281c0 6.953125 3.785156 13.347656 9.882812 16.691406 2.855469 1.570313 6.011719 2.347656 9.15625 2.347656 3.5625 0 7.117188-1 10.230469-2.980468l78.597657-50.0625c.269531-.167969.617187-.15625.867187.039062l43.382813 33.414063c5.300781 4.082031 12.621093 4.363281 18.214843.707031l31.367188-20.5c3.464843-2.261719 4.4375-6.90625 2.175781-10.371094-2.265625-3.464844-6.910156-4.4375-10.371094-2.171875l-31.367187 20.496094c-.269531.175781-.621094.164063-.875-.03125l-43.382813-33.414063c-5.230468-4.03125-12.488281-4.355468-18.058594-.808593l-78.601562 50.0625c-1.828125 1.164062-3.496094.484375-4.128906.136719-.632813-.347657-2.101563-1.386719-2.101563-3.554688v-26.488281c0-1.394531.738281-2.71875 1.929688-3.453125l90.839843-55.8125c.265626-.164063.613282-.144532.859376.050781l43.46875 34.101563c5.277343 4.140624 12.613281 4.476562 18.25.839843l147.386718-95.121093c.285156-.183594.660156-.15625.914063.074218l26.222656 23.644532c5.195313 4.683593 12.703125 5.394531 18.6875 1.777343l59.101563-35.734375c3.773437-2.28125 6.429687-6.070312 7.292968-10.394531.863282-4.324219-.140625-8.839844-2.75-12.394531l-10.191406-13.875 77.6875-1.167969c.097656 0 .390625-.003906.621094.308594.230468.3125.140625.582031.109375.683593l-23.902344 72.390626c-.046875.140624-.144531.4375-.597656.507812-.457031.074219-.640625-.179688-.726563-.300781l-10.769531-14.660157c-4.820313-6.5625-13.734375-8.371093-20.730469-4.210937l-89.601562 53.277344c-.289063.175781-.664063.132812-.910156-.101563l-20.820313-19.8125c-5.316406-5.054687-13.320313-5.789062-19.460937-1.773437l-85.628907 55.957031c-3.460937 2.261719-4.433593 6.90625-2.171875 10.367188 2.261719 3.46875 6.90625 4.4375 10.371094 2.175781l85.625-55.957031c.296875-.191407.679688-.15625.933594.085937l20.824218 19.8125c5.089844 4.839844 12.855469 5.714844 18.894532 2.125l89.601562-53.277344c.335938-.199219.765625-.109375.996094.203125zm0 0"/></svg>