<svg height="512" viewBox="0 0 256 256" width="512" xmlns="http://www.w3.org/2000/svg"><path d="m41.47 127.008h73.071v45.416h-73.071z" fill="#9e9e9e"/><path d="m41.47 127.008h18.5v45.416h-18.5z" fill="#707070"/><circle cx="41.47" cy="123.781" fill="#f87023" r="10.345"/><circle cx="114.541" cy="123.781" fill="#f8af23" r="10.345"/><path d="m134.023 234.371h-110.223v-14.943a44.644 44.644 0 0 1 44.644-44.644h19.125a44.644 44.644 0 0 1 44.644 44.644z" fill="#f46275"/><path d="m86.942 174.785h-18.5a44.644 44.644 0 0 0 -44.642 44.643v14.943h18.5v-14.943a44.644 44.644 0 0 1 44.642-44.643z" fill="#f43075"/><rect fill="#f8af23" height="44.209" rx="9.639" width="22.345" x="66.833" y="144.989"/><path d="m75.964 145.015a9.662 9.662 0 0 0 -9.131 9.614v24.93a9.662 9.662 0 0 0 9.125 9.613v-44.04c0-.039.005-.077.006-.117z" fill="#f87023"/><rect fill="#f8af23" height="91.096" rx="36.535" width="73.071" x="41.47" y="76.316"/><path d="m59.97 130.877v-18.026a36.679 36.679 0 0 1 27.285-35.338 36.265 36.265 0 0 0 -9.25-1.2 36.643 36.643 0 0 0 -36.535 36.538v18.026a36.643 36.643 0 0 0 36.535 36.535 36.265 36.265 0 0 0 9.25-1.2 36.679 36.679 0 0 1 -27.285-35.335z" fill="#f87023"/><path d="m66.833 174.813 11.172 14.558-12.103 6.517-4.898-20.487 5.829-6.616z" fill="#63bce7"/><path d="m89.178 174.813-11.173 14.558 12.104 6.517 4.897-20.487-5.828-6.616z" fill="#63bce7"/><path d="m69.349 130.319a2.3 2.3 0 0 1 -2.3 2.3 2.3 2.3 0 0 1 -2.3-2.3v-3.23a2.3 2.3 0 0 1 2.3-2.3 2.3 2.3 0 0 1 2.3 2.3z" fill="#3f3679"/><path d="m96.224 130.319a2.3 2.3 0 0 1 -2.3 2.3 2.3 2.3 0 0 1 -2.3-2.3v-3.23a2.3 2.3 0 0 1 2.3-2.3 2.3 2.3 0 0 1 2.3 2.3z" fill="#3f3679"/><path d="m64.75 95.917s26.147 20.683 49.2 10.372a36.673 36.673 0 0 0 -35.945-29.973 36.643 36.643 0 0 0 -36.535 36.535v.585s16.067.629 23.28-17.519z" fill="#9e9e9e"/><path d="m87.249 77.515a36.27 36.27 0 0 0 -9.243-1.2 36.643 36.643 0 0 0 -36.536 36.536v.585a24.648 24.648 0 0 0 20.185-11.521 36.8 36.8 0 0 1 25.594-24.4z" fill="#707070"/><circle cx="214.53" cy="123.781" fill="#f8d323" r="10.345"/><circle cx="141.459" cy="123.781" fill="#f8af23" r="10.345"/><path d="m123.751 234.371h108.449v-14.943a44.644 44.644 0 0 0 -44.644-44.644h-19.125a44.644 44.644 0 0 0 -44.644 44.644z" fill="#63bce7"/><path d="m187.558 174.785h-18.5a44.644 44.644 0 0 1 44.642 44.643v14.943h18.5v-14.943a44.644 44.644 0 0 0 -44.642-44.643z" fill="#63e2e7"/><rect fill="#f8af23" height="44.209" rx="9.639" transform="matrix(-1 0 0 -1 355.99 334.188)" width="22.345" x="166.822" y="144.989"/><path d="m180.086 145.018v44.152a9.662 9.662 0 0 0 9.081-9.611v-24.93a9.662 9.662 0 0 0 -9.081-9.611z" fill="#f8d323"/><rect fill="#f8af23" height="91.096" rx="36.535" transform="matrix(-1 0 0 -1 355.99 243.728)" width="73.071" x="141.459" y="76.316"/><path d="m177.995 76.316a36.264 36.264 0 0 0 -9.25 1.2 36.679 36.679 0 0 1 27.285 35.338v18.026a36.679 36.679 0 0 1 -27.285 35.338 36.264 36.264 0 0 0 9.25 1.2 36.643 36.643 0 0 0 36.535-36.535v-18.032a36.643 36.643 0 0 0 -36.535-36.535z" fill="#f8d323"/><path d="m189.167 174.813-11.172 14.558 12.103 6.517 4.898-20.487-5.829-6.616z" fill="#f46275"/><path d="m166.822 174.813 11.173 14.558-12.104 6.517-4.897-20.487 5.828-6.616z" fill="#f46275"/><path d="m186.651 130.319a2.3 2.3 0 0 0 2.3 2.3 2.3 2.3 0 0 0 2.3-2.3v-3.23a2.3 2.3 0 0 0 -2.3-2.3 2.3 2.3 0 0 0 -2.3 2.3z" fill="#3f3679"/><path d="m147.536 73.184a18.479 18.479 0 0 1 14.4 6.879 36.192 36.192 0 0 1 16.059-3.747 36.643 36.643 0 0 1 36.535 36.535v8.094h-6.018v-4.882s-12.183-3.074-12.3-16.522c0 0-15.5 13.762-43.437 9.921a18.518 18.518 0 1 1 -5.24-36.278z" fill="#9e9e9e"/><path d="m177.995 76.316a36.183 36.183 0 0 0 -9.225 1.2 36.8 36.8 0 0 1 25.313 23.624 23.849 23.849 0 0 0 2.13-1.6c.115 13.448 12.3 16.522 12.3 16.522v4.882h6.018v-8.094a36.643 36.643 0 0 0 -36.536-36.534z" fill="#cecece"/><path d="m159.776 130.319a2.3 2.3 0 0 0 2.3 2.3 2.3 2.3 0 0 0 2.3-2.3v-3.23a2.3 2.3 0 0 0 -2.3-2.3 2.3 2.3 0 0 0 -2.3 2.3z" fill="#3f3679"/><path d="m105.212 231.081v-12.049a3.3 3.3 0 0 0 -3.29-3.29h-14.182v-5.391a2.774 2.774 0 1 0 -5.451 0v24.02h19.632a3.3 3.3 0 0 0 3.291-3.29z" fill="#f8af23"/><path d="m75.553 215.207h6.737v19.164h-6.737z" fill="#f46275"/><path d="m150.788 231.081v-12.049a3.3 3.3 0 0 1 3.29-3.29h14.182v-5.391a2.774 2.774 0 1 1 5.451 0v24.02h-19.633a3.3 3.3 0 0 1 -3.29-3.29z" fill="#f8af23"/><path d="m173.71 215.207h6.737v19.164h-6.737z" fill="#f46275" transform="matrix(-1 0 0 -1 354.158 449.578)"/><circle cx="78.005" cy="40.197" fill="#f8af23" r="30.322"/><path d="m66.183 40.2a30.331 30.331 0 0 1 21.072-28.88 30.322 30.322 0 1 0 0 57.76 30.332 30.332 0 0 1 -21.072-28.88z" fill="#f87023"/><path d="m93.384 40.179v10.555a2.9 2.9 0 0 1 -.925 2.14 3.028 3.028 0 0 1 -2.194.907h-9.286v7.435a2.911 2.911 0 0 1 -.906 2.158 2.956 2.956 0 0 1 -2.14.888 3.04 3.04 0 0 1 -2.212-.888 2.909 2.909 0 0 1 -.907-2.158v-7.508h-9.214a2.953 2.953 0 0 1 -2.14-.888 2.909 2.909 0 0 1 -.907-2.158 3.033 3.033 0 0 1 3.047-3.048h21.545v-4.388h-21.472a2.968 2.968 0 0 1 -2.158-.871 2.918 2.918 0 0 1 -.889-2.176v-10.518a3.035 3.035 0 0 1 3.047-3.047h9.14v-7.435a3.009 3.009 0 0 1 3.156-3.047 2.9 2.9 0 0 1 2.122.888 2.94 2.94 0 0 1 .888 2.158v7.435h9.358a3.03 3.03 0 0 1 2.194.906 2.9 2.9 0 0 1 .925 2.14 3.159 3.159 0 0 1 -3.119 3.119h-21.544v4.352h21.472a3.031 3.031 0 0 1 2.194.907 2.9 2.9 0 0 1 .925 2.142z" fill="#3f3679"/><circle cx="177.976" cy="40.197" fill="#f8af23" r="30.322"/><path d="m189.8 40.2a30.331 30.331 0 0 0 -21.072-28.88 30.322 30.322 0 1 1 0 57.76 30.332 30.332 0 0 0 21.072-28.88z" fill="#f8d323"/><path d="m187.664 22.225q3.489 3.02 3.489 8.668a10.408 10.408 0 0 1 -3.406 8.252 13.043 13.043 0 0 1 -7.677 3.025 1.58 1.58 0 0 0 -1.434 1.575v1.842a1.589 1.589 0 0 1 -1.589 1.589h-5.739a1.589 1.589 0 0 1 -1.589-1.589v-7.844a1.589 1.589 0 0 1 1.589-1.589h2.122a13.829 13.829 0 0 0 6.2-1.135 4.167 4.167 0 0 0 2.215-4.071 3.971 3.971 0 0 0 -1.052-2.936 3.819 3.819 0 0 0 -2.825-1.052 4.119 4.119 0 0 0 -3.129 1.19 3.981 3.981 0 0 0 -1.009 1.871 1.564 1.564 0 0 1 -1.546 1.147h-5.853a1.581 1.581 0 0 1 -1.589-1.709 11.173 11.173 0 0 1 1.358-4.359 10.619 10.619 0 0 1 4.625-4.32 16.321 16.321 0 0 1 7.477-1.579q5.872.005 9.362 3.024zm-8.529 31.082v6.293a1.589 1.589 0 0 1 -1.589 1.589h-6.68a1.589 1.589 0 0 1 -1.589-1.589v-6.293a1.589 1.589 0 0 1 1.589-1.589h6.68a1.589 1.589 0 0 1 1.588 1.589z" fill="#f46275"/><path d="m131.639 34.854h-16.007a.393.393 0 0 1 -.393-.393v-10.526a.393.393 0 0 1 .393-.393h16.007a.393.393 0 0 0 .393-.393v-1.895a.393.393 0 0 1 .671-.278l7.944 7.944a.393.393 0 0 1 0 .556l-7.947 7.943a.393.393 0 0 1 -.671-.278v-1.894a.393.393 0 0 0 -.39-.393z" fill="#f46275"/><path d="m124.361 45.541h16.007a.393.393 0 0 1 .393.393v10.526a.393.393 0 0 1 -.393.393h-16.007a.393.393 0 0 0 -.393.393v1.894a.393.393 0 0 1 -.671.278l-7.944-7.944a.393.393 0 0 1 0-.556l7.944-7.944a.393.393 0 0 1 .671.278v1.895a.393.393 0 0 0 .393.394z" fill="#63bce7"/><g fill="#3f3679"><path d="m80.59 148.433a1.5 1.5 0 0 0 0 3 5.326 5.326 0 0 0 1.5-10.442v-6.865a1.5 1.5 0 0 0 -3 0v8.135a1.5 1.5 0 0 0 1.5 1.5c.018 0 .035 0 .053-.005a2.339 2.339 0 0 1 -.053 4.677z"/><path d="m69.746 150.882a8.065 8.065 0 0 0 13.762 5.7 1.5 1.5 0 0 0 -2.121-2.121 5.062 5.062 0 0 1 -8.641-3.578 1.5 1.5 0 0 0 -3 0z"/><path d="m58.967 122.191a1.5 1.5 0 0 0 2.076-.436 5.38 5.38 0 0 1 3.564-2.262 6.33 6.33 0 0 1 4.893 1.2 1.5 1.5 0 1 0 1.771-2.422 9.3 9.3 0 0 0 -7.2-1.729 8.385 8.385 0 0 0 -5.537 3.572 1.5 1.5 0 0 0 .433 2.077z"/><path d="m84.556 122.191a1.5 1.5 0 0 0 2.076-.436 5.38 5.38 0 0 1 3.565-2.262 6.326 6.326 0 0 1 4.892 1.2 1.5 1.5 0 1 0 1.771-2.422 9.3 9.3 0 0 0 -7.2-1.729 8.388 8.388 0 0 0 -5.539 3.572 1.5 1.5 0 0 0 .435 2.077z"/><path d="m176.91 149.933a1.5 1.5 0 0 0 -1.5-1.5 2.339 2.339 0 0 1 -.053-4.677c.018 0 .035.005.053.005a1.5 1.5 0 0 0 1.5-1.5v-8.135a1.5 1.5 0 0 0 -3 0v6.865a5.326 5.326 0 0 0 1.5 10.442 1.5 1.5 0 0 0 1.5-1.5z"/><path d="m183.895 156.581a8.012 8.012 0 0 0 2.359-5.7 1.5 1.5 0 0 0 -3 0 5.061 5.061 0 0 1 -8.641 3.578 1.5 1.5 0 0 0 -2.121 2.121 8.075 8.075 0 0 0 11.4 0z"/><path d="m186.5 120.693a6.337 6.337 0 0 1 4.893-1.2 5.38 5.38 0 0 1 3.564 2.262 1.5 1.5 0 0 0 2.512-1.641 8.385 8.385 0 0 0 -5.537-3.572 9.324 9.324 0 0 0 -7.2 1.729 1.5 1.5 0 1 0 1.771 2.422z"/><path d="m171.444 122.191a1.5 1.5 0 0 0 .436-2.076 8.388 8.388 0 0 0 -5.539-3.572 9.314 9.314 0 0 0 -7.2 1.729 1.5 1.5 0 1 0 1.771 2.422 6.336 6.336 0 0 1 4.892-1.2 5.38 5.38 0 0 1 3.565 2.262 1.5 1.5 0 0 0 2.076.436z"/><path d="m25.89 244.625h-18.5a1.5 1.5 0 1 0 0 3h18.5a1.5 1.5 0 0 0 0-3z"/><path d="m248.61 244.625h-18.5a1.5 1.5 0 0 0 0 3h18.5a1.5 1.5 0 0 0 0-3z"/><path d="m215.337 244.625h-174.674a1.5 1.5 0 1 0 0 3h174.674a1.5 1.5 0 0 0 0-3z"/><path d="m7.39 235.871h241.22a1.5 1.5 0 0 0 0-3h-14.91v-13.443a45.939 45.939 0 0 0 -37.918-45.4l-5.117-5.809v-1.484a38.129 38.129 0 0 0 25.064-31.168 11.846 11.846 0 0 0 .278-23.537 38.072 38.072 0 0 0 -38.007-37.214 37.443 37.443 0 0 0 -15.669 3.4 20.012 20.012 0 1 0 -22.272 32.037q-.061.89-.079 1.783a11.841 11.841 0 0 0 .283 23.528 38.13 38.13 0 0 0 25.064 31.168v1.484l-5.112 5.8a45.945 45.945 0 0 0 -32.226 23.138 46.2 46.2 0 0 0 -32.19-23.133l-.091-.1h18.838a1.5 1.5 0 0 0 1.5-1.5v-36.9a11.84 11.84 0 0 0 -.021-23.492 38.023 38.023 0 0 0 -76.03.01 11.834 11.834 0 0 0 -.021 23.482v36.9a1.5 1.5 0 0 0 1.5 1.5h18.832l-.085.1a46.025 46.025 0 0 0 -37.921 45.408v13.442h-14.91a1.5 1.5 0 1 0 0 3zm73.4-3.02h-3.737v-16.144h3.737zm3 .02v-22.52c0-1.056.646-1.791 1.226-1.791s1.225.735 1.225 1.791v5.391a1.5 1.5 0 0 0 1.5 1.5h14.182a1.792 1.792 0 0 1 1.79 1.79v.184h-9.795a1.5 1.5 0 0 0 0 3h9.794v1.194h-9.794a1.5 1.5 0 1 0 0 3h9.794v1.2h-9.794a1.5 1.5 0 0 0 0 3h9.794v.476a1.792 1.792 0 0 1 -1.79 1.79zm68.5-1.79v-.476h9.794a1.5 1.5 0 0 0 0-3h-9.794v-1.2h9.794a1.5 1.5 0 0 0 0-3h-9.794v-1.194h9.794a1.5 1.5 0 0 0 0-3h-9.794v-.184a1.792 1.792 0 0 1 1.79-1.79h14.18a1.5 1.5 0 0 0 1.5-1.5v-5.391c0-1.056.646-1.791 1.225-1.791s1.226.735 1.226 1.791v22.52h-18.133a1.792 1.792 0 0 1 -1.79-1.785zm26.659 1.771h-3.739v-16.145h3.737zm-.953-45.944-9.672-12.6v-6.643a38.043 38.043 0 0 0 19.345 0v6.635zm12.363-11.181a1.5 1.5 0 0 0 .31-.913v-2.058l2.689 3.054-4.264 17.833-8.835-4.757zm33.018-51.946a8.852 8.852 0 0 1 -7.386 8.715c.023-.537.041-1.075.041-1.618v-15.807a8.782 8.782 0 0 1 7.343 8.709zm-92.858-32.081a17.015 17.015 0 0 1 30.251-10.7 1.5 1.5 0 0 0 1.83.4 34.5 34.5 0 0 1 15.4-3.584 35.075 35.075 0 0 1 35.035 35.035v6.594h-3.019v-3.382a1.5 1.5 0 0 0 -1.133-1.454c-.11-.028-11.061-2.932-11.165-15.081a1.5 1.5 0 0 0 -2.494-1.11c-.149.133-15.376 13.248-42.239 9.558a1.524 1.524 0 0 0 -.629.048 17.018 17.018 0 0 1 -21.837-16.324zm2.1 32.079a8.821 8.821 0 0 1 7.345-8.711v15.808c0 .543.018 1.081.041 1.618a8.852 8.852 0 0 1 -7.391-8.714zm10.345 7.1v-18.027c0-.555.017-1.113.044-1.67a19.723 19.723 0 0 0 9.884-.191c22.292 2.976 36.709-4.913 42.033-8.584 1.367 9.782 9.143 13.619 12.092 14.734v3.8a1.5 1.5 0 0 0 1.5 1.5h4.519v8.432a35.036 35.036 0 0 1 -70.071 0zm22.363 41.88v2.057a1.5 1.5 0 0 0 .311.913l10.1 13.159-8.835 4.757-4.264-17.833zm-5.454 4.388 4.564 19.092a1.5 1.5 0 0 0 2.17.972l11.393-6.137 11.393 6.134a1.49 1.49 0 0 0 .711.18 1.5 1.5 0 0 0 1.459-1.151l4.565-19.095a42.949 42.949 0 0 1 34.58 42.286v13.424h-48.761v-16.145h46.068a1.5 1.5 0 0 0 0-3h-52.805v-3.355a4.259 4.259 0 1 0 -8.45 0v3.891h-12.682a4.8 4.8 0 0 0 -4.79 4.79v12.049a4.754 4.754 0 0 0 .354 1.79h-6.2v-20.5a1.5 1.5 0 0 0 -3 0v20.5h-15.187l.033-13.443a43.009 43.009 0 0 1 34.581-42.284zm-81.863 9.763-9.672-12.6v-6.643a38.043 38.043 0 0 0 19.345 0v6.633zm-12.677-14.154v2.058a1.5 1.5 0 0 0 .31.913l10.1 13.159-8.835 4.757-4.264-17.833zm-22.363-45.748v-12.142c4.222-.368 16.015-2.661 22.414-16.616a77.316 77.316 0 0 0 14.6 8.043c12 4.978 23.281 5.689 32.768 2.1a35.171 35.171 0 0 1 .293 4.458v18.025a35.036 35.036 0 0 1 -70.071 0zm47.4 48.719a1.5 1.5 0 0 0 .311-.913v-2.057l2.688 3.053-4.269 17.833-8.835-4.757zm2.694-4.8-2.383-2.706v-1.484a38.235 38.235 0 0 0 22.363-21.052v25.242zm30.325-47.143a8.852 8.852 0 0 1 -7.345 8.708v-17.422a8.784 8.784 0 0 1 7.342 8.711zm-45.389-45.968a35.091 35.091 0 0 1 34.223 27.552c-21.672 8.691-46.3-10.431-46.548-10.628a1.5 1.5 0 0 0 -2.323.623c-5.548 13.956-16.409 16.171-20.362 16.513a35.07 35.07 0 0 1 35.01-34.06zm-45.38 45.965a8.852 8.852 0 0 1 7.345-8.708v17.416a8.852 8.852 0 0 1 -7.34-8.708zm10.35 47.143v-25.242a38.235 38.235 0 0 0 22.363 21.052v1.484l-2.384 2.706zm16.909 6.221 4.564 19.092a1.5 1.5 0 0 0 2.17.972l11.387-6.135 11.4 6.134a1.49 1.49 0 0 0 .711.18 1.5 1.5 0 0 0 1.459-1.151l4.562-19.083a43.206 43.206 0 0 1 30.2 23.326 46.205 46.205 0 0 0 -4.045 18.944l-.033 13.447h-6.214v-20.5a1.5 1.5 0 0 0 -3 0v20.5h-6.683a4.753 4.753 0 0 0 .354-1.79v-12.049a4.8 4.8 0 0 0 -4.79-4.79h-12.681v-3.891a4.259 4.259 0 1 0 -8.45 0v3.355h-52.806a1.5 1.5 0 0 0 0 3h46.069v16.145h-48.753v-13.422a43.027 43.027 0 0 1 34.578-42.284z"/><path d="m78 72.02a31.822 31.822 0 1 0 -31.817-31.82 31.858 31.858 0 0 0 31.817 31.82zm0-60.645a28.822 28.822 0 1 1 -28.817 28.825 28.855 28.855 0 0 1 28.817-28.825z"/><path d="m177.977 72.02a31.822 31.822 0 1 0 -31.823-31.82 31.858 31.858 0 0 0 31.823 31.82zm0-60.645a28.822 28.822 0 1 1 -28.823 28.825 28.855 28.855 0 0 1 28.823-28.825z"/><path d="m177.546 50.218h-6.681a3.092 3.092 0 0 0 -3.089 3.089v6.293a3.092 3.092 0 0 0 3.089 3.089h6.681a3.092 3.092 0 0 0 3.089-3.089v-6.293a3.092 3.092 0 0 0 -3.089-3.089zm.089 9.382a.089.089 0 0 1 -.089.089h-6.681a.088.088 0 0 1 -.089-.089v-6.293a.088.088 0 0 1 .089-.089h6.681a.089.089 0 0 1 .089.089z"/><path d="m166.434 32.67h5.853a3.077 3.077 0 0 0 3.008-2.307 2.474 2.474 0 0 1 .634-1.177 2.67 2.67 0 0 1 2.044-.726 2.367 2.367 0 0 1 1.763.611 2.533 2.533 0 0 1 .614 1.876c0 1.789-.748 2.4-1.4 2.736a12.485 12.485 0 0 1 -5.519.97h-2.122a3.092 3.092 0 0 0 -3.089 3.089v7.844a3.092 3.092 0 0 0 3.089 3.089h5.739a3.092 3.092 0 0 0 3.089-3.089v-1.841a.08.08 0 0 1 .067-.081 14.569 14.569 0 0 0 8.534-3.392 11.893 11.893 0 0 0 3.916-9.38c0-4.2-1.349-7.5-4.008-9.8-2.6-2.245-6.076-3.384-10.342-3.384a17.852 17.852 0 0 0 -8.156 1.742 12.131 12.131 0 0 0 -5.256 4.928 12.7 12.7 0 0 0 -1.54 4.936 3.034 3.034 0 0 0 .773 2.333 3.122 3.122 0 0 0 2.309 1.023zm1.08-6.837a9.062 9.062 0 0 1 3.994-3.711 14.921 14.921 0 0 1 6.8-1.416c3.524 0 6.343.893 8.379 2.652 2 1.73 2.971 4.2 2.971 7.534a8.911 8.911 0 0 1 -2.9 7.126 11.651 11.651 0 0 1 -6.821 2.657 3.062 3.062 0 0 0 -2.8 3.069v1.842a.088.088 0 0 1 -.089.089h-5.739a.089.089 0 0 1 -.089-.089v-7.843a.089.089 0 0 1 .089-.089h2.122a15.1 15.1 0 0 0 6.888-1.3 5.61 5.61 0 0 0 3.031-5.406 5.427 5.427 0 0 0 -1.492-4 5.277 5.277 0 0 0 -3.885-1.491 5.572 5.572 0 0 0 -4.216 1.656 5.317 5.317 0 0 0 -1.362 2.518.17.17 0 0 1 -.107.035h-5.853a.112.112 0 0 1 -.1-.059 9.742 9.742 0 0 1 1.179-3.774z"/><path d="m115.632 36.354h14.9v.788a1.892 1.892 0 0 0 3.231 1.338l7.944-7.943a1.894 1.894 0 0 0 0-2.677l-7.942-7.941a1.893 1.893 0 0 0 -3.233 1.336v.788h-14.9a1.9 1.9 0 0 0 -1.894 1.893v10.525a1.9 1.9 0 0 0 1.894 1.893zm1.106-11.312h14.9a1.9 1.9 0 0 0 1.774-1.233l5.39 5.39-5.39 5.389a1.9 1.9 0 0 0 -1.774-1.233h-14.9z"/><path d="m124.3 41.5a1.875 1.875 0 0 0 -2.061.411l-7.944 7.943a1.894 1.894 0 0 0 0 2.677l7.942 7.941a1.893 1.893 0 0 0 3.233-1.336v-.788h14.9a1.9 1.9 0 0 0 1.894-1.893v-10.521a1.9 1.9 0 0 0 -1.894-1.893h-14.9v-.788a1.885 1.885 0 0 0 -1.17-1.753zm14.964 5.537v8.312h-14.9a1.9 1.9 0 0 0 -1.774 1.233l-5.39-5.382 5.39-5.389a1.9 1.9 0 0 0 1.774 1.233z"/></g></svg>